<svg xmlns="http://www.w3.org/2000/svg" width="600" height="300" viewBox="0 0 600 300"><rect width="600" height="300" fill="#000"/><g fill="none" stroke="#C7A256" stroke-width="2" opacity=".82"><ellipse cx="145" cy="150" rx="86" ry="108"/><ellipse cx="145" cy="150" rx="42" ry="58"/><path d="M145 42V92M205 74L177 108M231 150H187M205 226L177 192M145 258V208M85 226L113 192M59 150H103M85 74L113 108"/></g><path d="M270 136l18 14-18 14M320 136l18 14-18 14" fill="none" stroke="#C7A256" stroke-width="3" opacity=".58"/><g stroke="#050506"><polygon points="455,42 498,56 492,102 455,92" fill="#765722"/><polygon points="498,56 532,92 513,118 492,102" fill="#C7A256"/><polygon points="532,92 541,150 497,150 513,118" fill="#26262A"/><polygon points="541,150 532,208 513,182 497,150" fill="#151518"/><polygon points="532,208 498,244 492,198 513,182" fill="#C7A256"/><polygon points="498,244 455,258 455,208 492,198" fill="#765722"/><polygon points="455,258 412,244 418,198 455,208" fill="#080809"/><polygon points="412,244 378,208 397,182 418,198" fill="#0E0E10"/><polygon points="378,208 369,150 413,150 397,182" fill="#151518"/><polygon points="369,150 378,92 397,118 413,150" fill="#080809"/><polygon points="378,92 412,56 418,102 397,118" fill="#151518"/><polygon points="412,56 455,42 455,92 418,102" fill="#26262A"/></g><ellipse cx="455" cy="150" rx="42" ry="58" fill="none" stroke="#EBCD81" stroke-width="3"/></svg>
