<svg xmlns="http://www.w3.org/2000/svg" width="600" height="300" viewBox="0 0 600 300"><rect width="600" height="300" fill="#000"/><g fill="none" stroke="#C7A256" stroke-width="2" opacity=".75"><ellipse cx="145" cy="150" rx="78" ry="105"/><path d="M145 45L184 59M184 59L213 98M213 98L223 150M223 150L213 202M213 202L184 241M184 241L145 255M145 255L106 241M106 241L77 202M77 202L67 150M67 150L77 98M77 98L106 59M106 59L145 45M145 45L213 98M213 98L184 241M184 241L77 202M77 202L106 59"/></g><path d="M270 135l18 15-18 15M320 135l18 15-18 15" fill="none" stroke="#C7A256" stroke-width="3" opacity=".6"/><g stroke="#050506"><polygon points="455,35 494,49 520,88 455,150" fill="#C7A256"/><polygon points="520,88 530,150 455,150" fill="#26262A"/><polygon points="530,150 520,212 455,150" fill="#1D1D21"/><polygon points="520,212 494,251 455,150" fill="#0E0E10"/><polygon points="494,251 455,265 416,251 455,150" fill="#C7A256"/><polygon points="416,251 390,212 455,150" fill="#151518"/><polygon points="390,212 380,150 455,150" fill="#26262A"/><polygon points="380,150 390,88 455,150" fill="#0E0E10"/><polygon points="390,88 416,49 455,150" fill="#151518"/><polygon points="416,49 455,35 455,150" fill="#1D1D21"/></g><ellipse cx="455" cy="150" rx="30" ry="42" fill="#765722" stroke="#EBCD81" stroke-width="2"/></svg>
