<svg xmlns="http://www.w3.org/2000/svg" width="600" height="300" viewBox="0 0 600 300"><rect width="600" height="300" fill="#000"/><g fill="none" stroke="#C7A256" stroke-width="2" opacity=".8"><polygon points="70,205 130,55 225,105 230,215 145,250"/><path d="M145 155L70 205M145 155L130 55M145 155L225 105M145 155L230 215M145 155L145 250"/></g><path d="M270 135l18 15-18 15M320 135l18 15-18 15" fill="none" stroke="#C7A256" stroke-width="3" opacity=".6"/><g stroke="#050506"><polygon points="455,150 360,210 420,45" fill="#151518"/><polygon points="455,150 420,45 535,90" fill="#C7A256"/><polygon points="455,150 535,90 545,220" fill="#26262A"/><polygon points="455,150 545,220 445,255" fill="#1D1D21"/><polygon points="455,150 445,255 360,210" fill="#0E0E10"/></g></svg>
