<svg xmlns="http://www.w3.org/2000/svg" width="1000" height="660" viewBox="0 0 1000 660"><rect width="1000" height="660" fill="#111"/><rect x="10" y="10" width="180" height="180" fill="#000" stroke="#2a2a2a"/><circle cx="100" cy="92" r="48" fill="#1a1a1a"/><path d="M 64 74 A 42 42 0 0 1 136 74" fill="none" stroke="#FFD700" stroke-width="10"/><text x="18" y="208" fill="#ddd" font-family="sans-serif" font-size="13">A1 · orb</text><circle cx="178" cy="206" r="5" fill="#8bd17c"/><rect x="208" y="10" width="180" height="180" fill="#000" stroke="#2a2a2a"/><path d="M 240 138 L 262 40 L 300 24 L 312 84 L 360 46 L 344 134 L 290 158 Z" fill="#1a1a1a"/><path d="M 312 84 L 360 46 L 344 134 Z" fill="#C7A256"/><text x="216" y="208" fill="#ddd" font-family="sans-serif" font-size="13">A2 · portal</text><circle cx="376" cy="206" r="5" fill="#8bd17c"/><rect x="406" y="10" width="180" height="180" fill="#000" stroke="#2a2a2a"/><rect x="434" y="78" width="124" height="58" rx="14" fill="#1a1a1a"/><polygon points="558,88 580,74 580,130 558,120" fill="#C7A256"/><circle cx="454" cy="134" r="13" fill="#000" stroke="#C7A256" stroke-width="4"/><circle cx="496" cy="134" r="13" fill="#000" stroke="#333" stroke-width="4"/><circle cx="538" cy="134" r="13" fill="#000" stroke="#C7A256" stroke-width="4"/><text x="414" y="208" fill="#ddd" font-family="sans-serif" font-size="13">A3 · machine</text><circle cx="574" cy="206" r="5" fill="#8bd17c"/><rect x="604" y="10" width="180" height="180" fill="#000" stroke="#2a2a2a"/><path d="M 632 110 L 682 74 L 694 24 L 712 74 L 762 92 L 722 116 L 712 162 L 686 122 L 646 140 Z" fill="#1a1a1a"/><polygon points="712,74 762,92 722,116" fill="#C7A256"/><text x="612" y="208" fill="#ddd" font-family="sans-serif" font-size="13">A4 · falcon</text><circle cx="772" cy="206" r="5" fill="#8bd17c"/><rect x="802" y="10" width="180" height="180" fill="#000" stroke="#2a2a2a"/><rect x="840" y="40" width="104" height="104" rx="20" fill="#1a1a1a"/><circle cx="892" cy="92" r="24" fill="#000" stroke="#FFD700" stroke-width="8"/><text x="810" y="208" fill="#ddd" font-family="sans-serif" font-size="13">A5 · core</text><circle cx="970" cy="206" r="5" fill="#8bd17c"/><rect x="10" y="226" width="180" height="180" fill="#000" stroke="#2a2a2a"/><circle cx="100" cy="308" r="48" fill="#1a1a1a"/><path d="M 64 290 A 42 42 0 0 1 136 290" fill="none" stroke="#FFD700" stroke-width="10"/><text x="18" y="424" fill="#ddd" font-family="sans-serif" font-size="13">R1 · edge crop</text><circle cx="178" cy="422" r="5" fill="#e6c767"/><rect x="208" y="226" width="180" height="180" fill="#000" stroke="#2a2a2a"/><path d="M 240 354 L 262 256 L 300 240 L 312 300 L 360 262 L 344 350 L 290 374 Z" fill="#1a1a1a"/><path d="M 312 300 L 360 262 L 344 350 Z" fill="#C7A256"/><text x="216" y="424" fill="#ddd" font-family="sans-serif" font-size="13">R2 · weak light</text><circle cx="376" cy="422" r="5" fill="#e6c767"/><rect x="406" y="226" width="180" height="180" fill="#000" stroke="#2a2a2a"/><rect x="434" y="294" width="124" height="58" rx="14" fill="#1a1a1a"/><polygon points="558,304 580,290 580,346 558,336" fill="#C7A256"/><circle cx="454" cy="350" r="13" fill="#000" stroke="#C7A256" stroke-width="4"/><circle cx="496" cy="350" r="13" fill="#000" stroke="#333" stroke-width="4"/><circle cx="538" cy="350" r="13" fill="#000" stroke="#C7A256" stroke-width="4"/><text x="414" y="424" fill="#ddd" font-family="sans-serif" font-size="13">R3 · gold high</text><circle cx="574" cy="422" r="5" fill="#e6c767"/><rect x="604" y="226" width="180" height="180" fill="#000" stroke="#2a2a2a"/><path d="M 632 326 L 682 290 L 694 240 L 712 290 L 762 308 L 722 332 L 712 378 L 686 338 L 646 356 Z" fill="#1a1a1a"/><polygon points="712,290 762,308 722,332" fill="#C7A256"/><text x="612" y="424" fill="#ddd" font-family="sans-serif" font-size="13">R4 · artifact</text><circle cx="772" cy="422" r="5" fill="#e6c767"/><rect x="802" y="226" width="180" height="180" fill="#000" stroke="#2a2a2a"/><rect x="840" y="256" width="104" height="104" rx="20" fill="#1a1a1a"/><circle cx="892" cy="308" r="24" fill="#000" stroke="#FFD700" stroke-width="8"/><text x="810" y="424" fill="#ddd" font-family="sans-serif" font-size="13">R5 · weak shape</text><circle cx="970" cy="422" r="5" fill="#e6c767"/><rect x="10" y="442" width="180" height="180" fill="#000" stroke="#2a2a2a"/><circle cx="100" cy="524" r="48" fill="#1a1a1a"/><path d="M 64 506 A 42 42 0 0 1 136 506" fill="none" stroke="#FFD700" stroke-width="10"/><text x="18" y="640" fill="#ddd" font-family="sans-serif" font-size="13">X1 · environment</text><circle cx="178" cy="638" r="5" fill="#e57373"/><rect x="208" y="442" width="180" height="180" fill="#000" stroke="#2a2a2a"/><path d="M 240 570 L 262 472 L 300 456 L 312 516 L 360 478 L 344 566 L 290 590 Z" fill="#1a1a1a"/><path d="M 312 516 L 360 478 L 344 566 Z" fill="#C7A256"/><text x="216" y="640" fill="#ddd" font-family="sans-serif" font-size="13">X2 · stone</text><circle cx="376" cy="638" r="5" fill="#e57373"/><rect x="406" y="442" width="180" height="180" fill="#000" stroke="#2a2a2a"/><rect x="434" y="510" width="124" height="58" rx="14" fill="#1a1a1a"/><polygon points="558,520 580,506 580,562 558,552" fill="#C7A256"/><circle cx="454" cy="566" r="13" fill="#000" stroke="#C7A256" stroke-width="4"/><circle cx="496" cy="566" r="13" fill="#000" stroke="#333" stroke-width="4"/><circle cx="538" cy="566" r="13" fill="#000" stroke="#C7A256" stroke-width="4"/><text x="414" y="640" fill="#ddd" font-family="sans-serif" font-size="13">X3 · chrome</text><circle cx="574" cy="638" r="5" fill="#e57373"/><rect x="604" y="442" width="180" height="180" fill="#000" stroke="#2a2a2a"/><path d="M 632 542 L 682 506 L 694 456 L 712 506 L 762 524 L 722 548 L 712 594 L 686 554 L 646 572 Z" fill="#1a1a1a"/><polygon points="712,506 762,524 722,548" fill="#C7A256"/><rect x="604" y="442" width="180" height="180" fill="#e8e8e8" opacity=".88"/><path d="M 646 578 L 694 466 L 742 578" fill="none" stroke="#1b81f7" stroke-width="8"/><circle cx="694" cy="466" r="9" fill="#1fb75c"/><text x="612" y="640" fill="#ddd" font-family="sans-serif" font-size="13">X4 · extra color</text><circle cx="772" cy="638" r="5" fill="#e57373"/><rect x="802" y="442" width="180" height="180" fill="#000" stroke="#2a2a2a"/><rect x="840" y="472" width="104" height="104" rx="20" fill="#1a1a1a"/><circle cx="892" cy="524" r="24" fill="#000" stroke="#FFD700" stroke-width="8"/><text x="810" y="640" fill="#ddd" font-family="sans-serif" font-size="13">X5 · crop/text</text><circle cx="970" cy="638" r="5" fill="#e57373"/></svg>
